#!OML:ASF H:\ManfredObstacles\Project 1\Capture day 2\Session 1\male.ASF
:FULLY-SPECIFIED
:DEGREES
374
root 2.0873 8.19939 1.03734 -173.793 -2.37754 -183.092
lowerback 44.181 5.64012 2.06164
upperback 18.6144 -0.166688 2.11908
thorax 0.28793 -3.09154 1.2493
lowerneck -29.4211 0.66357 2.83023
upperneck 26.0198 -0.976145 0.917051
head 13.724 -0.0682584 -0.314583
rclavicle -1.03368e-014 -1.98785e-016
rhumerus 5.54011 -1.07583 -81.2376
rradius 23.4384
rwrist 49.3995
rhand -23.6428 -7.68328
rfingers 7.12502
rthumb 2.82237 -37.6444
lclavicle -1.03368e-014 -1.98785e-016
lhumerus 22.0101 -7.25202 73.2324
lradius 41.5624
lwrist -34.2567
lhand -8.30346 10.9449
lfingers 7.12502
lthumb 17.6168 40.1668
rfemur -80.3652 -4.58975 31.3967
rtibia 142.091
rfoot -31.2346 -28.6387
rtoes -36.12
lfemur -101.222 2.61817 -26.2405
ltibia 124.983
lfoot -6.38943 26.7572
ltoes -7.48001
375
root 2.04996 8.13707 0.951073 -173.944 -2.06292 -182.569
lowerback 44.0626 5.6626 2.15554
upperback 18.6029 -0.115331 2.1354
thorax 0.308103 -3.06905 1.19936
lowerneck -29.5892 0.760495 2.85572
upperneck 25.9537 -0.77616 0.724161
head 13.7287 -0.00502859 -0.355308
rclavicle -4.77083e-015 1.92821e-014
rhumerus 5.21571 -0.963682 -81.3045
rradius 23.1977
rwrist 49.6538
rhand -23.5944 -7.42423
rfingers 7.12502
rthumb 2.86907 -37.3847
lclavicle -4.77083e-015 1.92821e-014
lhumerus 22.0351 -6.92989 73.1424
lradius 41.7015
lwrist -34.3026
lhand -8.68183 11.0684
lfingers 7.12502
lthumb 17.2527 40.3226
rfemur -80.1163 -5.02356 31.7126
rtibia 142.768
rfoot -30.9075 -28.1932
rtoes -36.7081
lfemur -101.355 2.96749 -25.8384
ltibia 126.144
lfoot -7.12121 27.1565
ltoes -7.79546
376
root 2.01295 8.07975 0.865668 -174.082 -1.73616 -182.071
lowerback 43.9919 5.7246 2.18569
upperback 18.584 -0.0433649 2.18264
thorax 0.305063 -3.04523 1.20881
lowerneck -29.7415 0.853231 2.87103
upperneck 25.8459 -0.576955 0.539148
head 13.7133 0.0577553 -0.391048
rclavicle 6.75868e-015 1.51076e-014
rhumerus 4.91798 -0.77004 -81.3055
rradius 22.9883
rwrist 49.8531
rhand -23.4943 -7.20137
rfingers 7.12502
rthumb 2.9657 -37.1605
lclavicle 6.75868e-015 1.51076e-014
lhumerus 22.093 -6.63861 73.0566
lradius 41.831
lwrist -34.3348
lhand -9.08836 11.2209
lfingers 7.12502
lthumb 16.8614 40.5089
rfemur -79.8702 -5.46327 31.9571
rtibia 143.401
rfoot -30.6094 -27.6474
rtoes -37.2168
lfemur -101.559 3.31052 -25.5022
ltibia 127.247
lfoot -7.55962 27.473
ltoes -7.96239
377
root 1.97656 8.02922 0.782405 -174.192 -1.41934 -181.605
lowerback 43.9659 5.8096 2.18987
upperback 18.5692 0.0408816 2.242
thorax 0.293824 -3.02013 1.24073
lowerneck -29.9228 0.942786 2.91689
upperneck 25.7041 -0.392866 0.34765
head 13.6895 0.116595 -0.437045
rclavicle 1.07344e-014 -4.17448e-015
rhumerus 4.66743 -0.550187 -81.2694
rradius 22.8119
rwrist 50.0474
rhand -23.3313 -7.03313
rfingers 7.12502
rthumb 3.12313 -36.99
lclavicle 1.07344e-014 -4.17448e-015
lhumerus 22.2488 -6.42547 72.9322
lradius 41.9435
lwrist -34.2913
lhand -9.4481 11.4278
lfingers 7.12502
lthumb 16.5151 40.7449
rfemur -79.6533 -5.96182 32.1285
rtibia 143.979
rfoot -30.2793 -27.0219
rtoes -37.6853
lfemur -101.824 3.61945 -25.2496
ltibia 128.287
lfoot -7.82932 27.7358
ltoes -7.81884
378
root 1.94038 7.98595 0.700844 -174.268 -1.10016 -181.186
lowerback 43.9615 5.91938 2.13292
upperback 18.5247 0.148313 2.30261
thorax 0.240144 -2.98305 1.29902
lowerneck -29.9696 1.02429 3.00308
upperneck 25.4906 -0.227132 0.134452
head 13.6098 0.166872 -0.501877
rclavicle 3.1408e-014 -1.98785e-016
rhumerus 4.36998 -0.265125 -81.1986
rradius 22.6721
rwrist 50.2003
rhand -23.0904 -6.94365
rfingers 7.12502
rthumb 3.35582 -36.897
lclavicle 3.1408e-014 -1.98785e-016
lhumerus 22.4121 -6.28721 72.7989
lradius 42.0222
lwrist -34.3081
lhand -9.77448 11.6429
lfingers 7.12502
lthumb 16.2008 40.986
rfemur -79.4689 -6.51503 32.1992
rtibia 144.503
rfoot -29.9132 -26.3175
rtoes -38.1154
lfemur -102.095 3.89283 -25.1006
ltibia 129.273
lfoot -8.00682 28.0224
ltoes -7.40953
379
root 1.90411 7.95079 0.621648 -174.306 -0.773369 -180.805
lowerback 43.9737 6.05038 2.06539
upperback 18.4896 0.273861 2.34816
thorax 0.191936 -2.9371 1.34013
lowerneck -30.0315 1.0846 3.09252
upperneck 25.2542 -0.106285 -0.0409282
head 13.5239 0.203927 -0.560697
rclavicle 7.95139e-016 -3.97569e-015
rhumerus 4.11486 -0.013042 -81.1329
rradius 22.5477
rwrist 50.3398
rhand -22.7643 -6.92142
rfingers 7.12502
rthumb 3.67072 -36.8696
lclavicle 7.95139e-016 -3.97569e-015
lhumerus 22.7034 -6.22265 72.6235
lradius 42.0411
lwrist -34.363
lhand -10.0823 11.8548
lfingers 7.12502
lthumb 15.9044 41.2217
rfemur -79.3294 -6.71282 32.167
rtibia 144.964
rfoot -29.4523 -25.6473
rtoes -38.5217
lfemur -102.335 4.14548 -25.0274
ltibia 130.198
lfoot -8.2409 28.3536
ltoes -6.71981
380
root 1.86689 7.92322 0.543523 -174.308 -0.437053 -180.493
lowerback 43.9884 6.1952 1.97888
upperback 18.4721 0.401534 2.36079
thorax 0.162227 -2.88994 1.35422
lowerneck -30.1397 1.12995 3.1998
upperneck 25.0216 -0.0239254 -0.197852
head 13.4485 0.229178 -0.622466
rclavicle 5.1684e-015 -1.19271e-015
rhumerus 3.90699 0.182073 -81.089
rradius 22.4344
rwrist 50.4478
rhand -22.3564 -6.94729
rfingers 7.12502
rthumb 4.0646 -36.8883
lclavicle 5.1684e-015 -1.19271e-015
lhumerus 23.1184 -6.18663 72.4297
lradius 41.9696
lwrist -34.5969
lhand -10.3765 12.0127
lfingers 7.12502
lthumb 15.6211 41.4019
rfemur -79.2172 -6.90379 31.9942
rtibia 145.375
rfoot -29.0107 -24.8749
rtoes -38.8926
lfemur -102.48 4.33919 -25.0318
ltibia 131.053
lfoot -8.54219 28.7866
ltoes -5.89421
381
root 1.82871 7.9031 0.466674 -174.274 -0.0963224 -180.227
lowerback 44.0032 6.34182 1.88787
upperback 18.4678 0.524193 2.34308
thorax 0.1475 -2.84365 1.33936
lowerneck -30.2751 1.15579 3.2752
upperneck 24.8154 0.0231435 -0.29849
head 13.3891 0.244216 -0.663602
rclavicle -1.55052e-014 1.59028e-015
rhumerus 3.74537 0.315959 -81.0721
rradius 22.3309
rwrist 50.4113
rhand -21.888 -6.97606
rfingers 7.12502
rthumb 4.51694 -36.9079
lclavicle -1.55052e-014 1.59028e-015
lhumerus 23.6608 -6.16324 72.2165
lradius 41.8032
lwrist -34.9302
lhand -10.6922 12.1264
lfingers 7.12502
lthumb 15.317 41.5391
rfemur -79.1198 -7.08955 31.7129
rtibia 145.728
rfoot -28.6056 -24.0168
rtoes -39.2463
lfemur -102.52 4.48084 -25.0685
ltibia 131.82
lfoot -8.96079 29.3059
ltoes -5.02911
382
root 1.7896 7.89022 0.3911 -174.2 0.242399 -179.996
lowerback 43.6732 -1.44494 -5.80857
upperback 18.5725 4.3634 -0.133046
thorax 0.317572 4.85447 1.30254
lowerneck -30.4234 1.16405 3.31549
upperneck 24.6397 0.0414432 -0.34775
head 13.3444 0.250705 -0.684427
rclavicle -1.59028e-015 2.15681e-014
rhumerus 3.62619 0.327315 -81.0932
rradius 22.2364
rwrist 50.2325
rhand -21.2976 -6.94961
rfingers 7.12502
rthumb 5.08696 -36.8686
lclavicle -1.59028e-015 2.15681e-014
lhumerus 24.3068 -6.15081 71.9985
lradius 41.5523
lwrist -35.2964
lhand -11.0366 12.1892
lfingers 7.12502
lthumb 14.9852 41.627
rfemur -79.0413 -7.25793 31.3415
rtibia 146.026
rfoot -28.2677 -23.0627
rtoes -39.5383
lfemur -102.449 4.56509 -25.1067
ltibia 132.484
lfoot -9.41917 29.902
ltoes -4.23893
383
root 1.75004 7.88443 0.317435 -174.087 0.588847 -179.769
lowerback 43.6623 -1.30012 -5.88595
upperback 18.5554 4.47704 -0.190936
thorax 0.301314 4.89577 1.23959
lowerneck -30.5735 1.16082 3.32114
upperneck 24.5085 0.0440237 -0.35983
head 13.3182 0.252212 -0.688273
rclavicle 5.1684e-015 -8.74653e-015
rhumerus 3.542 0.212672 -81.1513
rradius 22.1491
rwrist 49.9839
rhand -20.6428 -6.86486
rfingers 7.12502
rthumb 5.7192 -36.7677
lclavicle 5.1684e-015 -8.74653e-015
lhumerus 25.0455 -6.13261 71.7684
lradius 41.2078
lwrist -35.7219
lhand -11.3708 12.232
lfingers 7.12502
lthumb 14.6632 41.6935
rfemur -78.9833 -7.41991 30.9367
rtibia 146.258
rfoot -27.9728 -22.0351
rtoes -39.7604
lfemur -102.289 4.64341 -25.1168
ltibia 133.042
lfoot -9.93541 30.5275
ltoes -3.54746
384
root 1.71 7.88517 0.245504 -173.939 0.942728 -179.531
lowerback 43.652 -1.1546 -5.94565
upperback 18.5332 4.59548 -0.25547
thorax 0.279599 4.94002 1.15846
lowerneck -30.7254 1.14541 3.31061
upperneck 24.3898 0.0356226 -0.370753
head 13.2972 0.24746 -0.691298
rclavicle 2.32578e-014 -1.64991e-014
rhumerus 3.49565 -0.0137462 -81.2241
rradius 22.0745
rwrist 49.662
rhand -19.9298 -6.74233
rfingers 7.12502
rthumb 6.4076 -36.6254
lclavicle 2.32578e-014 -1.64991e-014
lhumerus 25.865 -6.1191 71.5482
lradius 40.7817
lwrist -36.1064
lhand -11.6949 12.2698
lfingers 7.12502
lthumb 14.351 41.7538
rfemur -78.9401 -7.56622 30.5236
rtibia 146.424
rfoot -27.6962 -20.9761
rtoes -39.9232
lfemur -102.058 4.7303 -25.0873
ltibia 133.501
lfoot -10.4357 31.16
ltoes -3.06019
385
root 1.66988 7.892 0.1763 -173.75 1.29582 -179.25
lowerback 43.6436 -1.01227 -5.96567
upperback 18.5016 4.71972 -0.316639
thorax 0.246154 4.98766 1.05768
lowerneck -30.857 1.12453 3.29423
upperneck 24.2666 0.0281735 -0.398175
head 13.2705 0.239897 -0.699744
rclavicle 8.15017e-015 1.16289e-014
rhumerus 3.50681 -0.41206 -81.3188
rradius 21.9671
rwrist 49.4819
rhand -19.2007 -6.55899
rfingers 7.12502
rthumb 7.11138 -36.4195
lclavicle 8.15017e-015 1.16289e-014
lhumerus 26.7636 -6.10237 71.339
lradius 40.2706
lwrist -36.48
lhand -11.9817 12.3275
lfingers 7.12502
lthumb 14.0746 41.8309
rfemur -78.9424 -7.7016 30.1658
rtibia 146.516
rfoot -27.4235 -19.8815
rtoes -39.9965
lfemur -101.819 4.8629 -25.0053
ltibia 133.879
lfoot -10.9688 31.7331
ltoes -2.72338
386
root 1.62949 7.90441 0.109103 -173.529 1.65006 -178.933
lowerback 43.6387 -0.872984 -5.9593
upperback 18.4561 4.84115 -0.372106
thorax 0.195661 5.03262 0.948882
lowerneck -30.9459 1.10604 3.27565
upperneck 24.1316 0.0386207 -0.462863
head 13.2311 0.234026 -0.719041
rclavicle -6.55989e-015 -3.37934e-015
rhumerus 3.56476 -0.887062 -81.4069
rradius 21.8263
rwrist 49.4674
rhand -18.4892 -6.36405
rfingers 7.12502
rthumb 7.79823 -36.2002
lclavicle -6.55989e-015 -3.37934e-015
lhumerus 27.6812 -6.05569 71.1733
lradius 39.6791
lwrist -36.9194
lhand -12.2321 12.3965
lfingers 7.12502
lthumb 13.8334 41.9165
rfemur -78.9754 -7.82783 29.8565
rtibia 146.539
rfoot -27.1355 -18.7807
rtoes -39.9765
lfemur -101.58 5.0336 -24.8907
ltibia 134.196
lfoot -11.4835 32.2533
ltoes -2.54133
387
root 1.58866 7.92152 0.0441061 -173.273 2.01443 -178.572
lowerback 43.6237 -0.729517 -5.95576
upperback 18.4042 4.95709 -0.401209
thorax 0.138119 5.06893 0.870891
lowerneck -30.9984 1.09957 3.22939
upperneck 23.9926 0.0938187 -0.570273
head 13.1842 0.238399 -0.741849
rclavicle -1.19271e-015 -8.54774e-015
rhumerus 3.68587 -1.33401 -81.4519
rradius 21.6486
rwrist 49.6492
rhand -17.8098 -6.16605
rfingers 7.12502
rthumb 8.45391 -35.9768
lclavicle -1.19271e-015 -8.54774e-015
lhumerus 28.6009 -5.92178 71.0858
lradius 39.0289
lwrist -37.3684
lhand -12.4325 12.4928
lfingers 7.12502
lthumb 13.6402 42.0259
rfemur -79.0549 -7.93495 29.62
rtibia 146.499
rfoot -26.7891 -17.7041
rtoes -39.8784
lfemur -101.391 5.26258 -24.7544
ltibia 134.474
lfoot -11.9783 32.6968
ltoes -2.45279
388
root 1.54729 7.94215 -0.0199453 -172.999 2.39299 -178.209
lowerback 43.5951 -0.579748 -5.99296
upperback 18.3508 5.05812 -0.415005
thorax 0.0812998 5.09123 0.835309
lowerneck -31.0238 1.10862 3.14289
upperneck 23.8701 0.196198 -0.699218
head 13.1401 0.256137 -0.757395
rclavicle -2.78299e-015 1.14301e-015
rhumerus 3.87623 -1.69329 -81.4473
rradius 21.4339
rwrist 49.9851
rhand -17.131 -5.9737
rfingers 7.12502
rthumb 9.1089 -35.757
lclavicle -2.78299e-015 1.14301e-015
lhumerus 29.48 -5.68723 71.0902
lradius 38.3535
lwrist -37.827
lhand -12.5528 12.6161
lfingers 7.12502
lthumb 13.5243 42.1569
rfemur -79.1554 -8.02684 29.3939
rtibia 146.418
rfoot -26.4405 -16.6199
rtoes -39.6814
lfemur -101.228 5.50966 -24.6419
ltibia 134.732
lfoot -12.4176 33.1029
ltoes -2.34137
